<svg xmlns="http://www.w3.org/2000/svg" xmlns:xlink="http://www.w3.org/1999/xlink" id="processonSvg1000" viewBox="237.0 360.0 613.0 512.0" width="613.0" height="512.0"><defs id="ProcessOnDefs1001"/><g id="ProcessOnG1002"><path id="ProcessOnPath1003" d="M237.0 360.0H850.0V872.0H237.0V360.0Z" fill="none"/><g id="ProcessOnG1004"><g id="ProcessOnG1005" transform="matrix(1.0,0.0,0.0,1.0,257.0,380.0)" opacity="1.0"><path id="ProcessOnPath1006" d="M0.0 0.0L573.0 0.0L573.0 464.0L0.0 464.0Z" stroke="#323232" stroke-width="2.0" stroke-dasharray="none" fill="#ffffff"/></g><g id="ProcessOnG1007" transform="matrix(1.0,0.0,0.0,1.0,291.0,640.0)" opacity="1.0"><path id="ProcessOnPath1008" d="M0.0 0.0L481.0 0.0L481.0 27.0L0.0 27.0Z" stroke="#007fff" stroke-width="2.0" stroke-dasharray="none" fill="#ffffff"/></g><g id="ProcessOnG1009" transform="matrix(1.0,0.0,0.0,1.0,544.5,690.0)" opacity="1.0"><path id="ProcessOnPath1010" d="M0.0 0.0L239.0 0.0L239.0 119.0L0.0 119.0Z" stroke="#323232" stroke-width="2.0" stroke-dasharray="none" fill="#ffffed"/><g id="ProcessOnG1011" transform="matrix(1.0,0.0,0.0,1.0,10.0,51.375)"><text id="ProcessOnText1012" fill="#323232" font-size="13" x="108.5" y="13.325" font-family="Arial" font-weight="normal" font-style="normal" text-decoration="none" family="Arial" text-anchor="middle" size="13">p2</text></g></g><g id="ProcessOnG1013" transform="matrix(1.0,0.0,0.0,1.0,410.0,689.0)" opacity="1.0"><path id="ProcessOnPath1014" d="M0.0 0.0L120.0 0.0L120.0 121.0L0.0 121.0Z" stroke="#323232" stroke-width="2.0" stroke-dasharray="none" fill="#ffffed"/><g id="ProcessOnG1015" transform="matrix(1.0,0.0,0.0,1.0,10.0,52.375)"><text id="ProcessOnText1016" fill="#323232" font-size="13" x="49.0" y="13.325" font-family="Arial" font-weight="normal" font-style="normal" text-decoration="none" family="Arial" text-anchor="middle" size="13">p3</text></g></g><g id="ProcessOnG1017" transform="matrix(1.0,0.0,0.0,1.0,337.0,690.0)" opacity="1.0"><path id="ProcessOnPath1018" d="M0.0 0.0L60.0 0.0L60.0 60.0L0.0 60.0Z" stroke="#323232" stroke-width="2.0" stroke-dasharray="none" fill="#ffffed"/></g><g id="ProcessOnG1019" transform="matrix(1.0,0.0,0.0,1.0,291.0,689.0)" opacity="1.0"><path id="ProcessOnPath1020" d="M0.0 0.0L35.0 0.0L35.0 33.0L0.0 33.0Z" stroke="#323232" stroke-width="2.0" stroke-dasharray="none" fill="#ffffed"/></g><g id="ProcessOnG1021" transform="matrix(1.0,0.0,0.0,1.0,291.0,418.0)" opacity="1.0"><path id="ProcessOnPath1022" d="M0.0 0.0L492.5 0.0L492.5 204.0L0.0 204.0Z" stroke="#323232" stroke-width="2.0" stroke-dasharray="none" fill="#ffffed"/></g><g id="ProcessOnG1023" transform="matrix(1.0,0.0,0.0,1.0,289.0,663.5)" opacity="1.0"><path id="ProcessOnPath1024" d="M0.0 0.0L53.0 0.0L53.0 29.0L0.0 29.0Z" stroke="none" stroke-width="0.0" stroke-dasharray="none" fill="none"/><g id="ProcessOnG1025" transform="matrix(1.0,0.0,0.0,1.0,0.0,6.375)"><text id="ProcessOnText1026" fill="#323232" font-size="13" x="25.5" y="13.325" font-family="Arial" font-weight="normal" font-style="normal" text-decoration="none" family="Arial" text-anchor="middle" size="13">16</text></g></g><g id="ProcessOnG1027" transform="matrix(1.0,0.0,0.0,1.0,344.5,663.5)" opacity="1.0"><path id="ProcessOnPath1028" d="M0.0 0.0L45.0 0.0L45.0 29.0L0.0 29.0Z" stroke="none" stroke-width="0.0" stroke-dasharray="none" fill="none"/><g id="ProcessOnG1029" transform="matrix(1.0,0.0,0.0,1.0,0.0,6.375)"><text id="ProcessOnText1030" fill="#323232" font-size="13" x="21.5" y="13.325" font-family="Arial" font-weight="normal" font-style="normal" text-decoration="none" family="Arial" text-anchor="middle" size="13">32</text></g></g><g id="ProcessOnG1031" transform="matrix(1.0,0.0,0.0,1.0,456.0,666.0)" opacity="1.0"><path id="ProcessOnPath1032" d="M0.0 0.0L28.0 0.0L28.0 24.0L0.0 24.0Z" stroke="none" stroke-width="0.0" stroke-dasharray="none" fill="none"/><g id="ProcessOnG1033" transform="matrix(1.0,0.0,0.0,1.0,0.0,3.875)"><text id="ProcessOnText1034" fill="#323232" font-size="13" x="13.0" y="13.325" font-family="Arial" font-weight="normal" font-style="normal" text-decoration="none" family="Arial" text-anchor="middle" size="13">64</text></g></g><g id="ProcessOnG1035" transform="matrix(1.0,0.0,0.0,1.0,586.5,658.0)" opacity="1.0"><path id="ProcessOnPath1036" d="M0.0 0.0L160.0 0.0L160.0 40.0L0.0 40.0Z" stroke="none" stroke-width="0.0" stroke-dasharray="none" fill="none"/><g id="ProcessOnG1037" transform="matrix(1.0,0.0,0.0,1.0,0.0,11.875)"><text id="ProcessOnText1038" fill="#323232" font-size="13" x="79.0" y="13.325" font-family="Arial" font-weight="normal" font-style="normal" text-decoration="none" family="Arial" text-anchor="middle" size="13">128</text></g></g><g id="ProcessOnG1039" transform="matrix(1.0,0.0,0.0,1.0,307.0,467.0)" opacity="1.0"><path id="ProcessOnPath1040" d="M0.0 0.0L120.0 0.0L120.0 121.0L0.0 121.0Z" stroke="#ff0000" stroke-width="2.0" stroke-dasharray="none" fill="#ffffed"/><g id="ProcessOnG1041" transform="matrix(1.0,0.0,0.0,1.0,10.0,52.375)"><text id="ProcessOnText1042" fill="#cc0000" font-size="13" x="49.0" y="13.325" font-family="Arial" font-weight="normal" font-style="normal" text-decoration="none" family="Arial" text-anchor="middle" size="13">p5</text></g></g><g id="ProcessOnG1043" transform="matrix(1.0,0.0,0.0,1.0,456.0,528.0)" opacity="1.0"><path id="ProcessOnPath1044" d="M0.0 0.0L60.0 0.0L60.0 60.0L0.0 60.0Z" stroke="#ff0000" stroke-width="2.0" stroke-dasharray="none" fill="#ffffed"/><g id="ProcessOnG1045" transform="matrix(1.0,0.0,0.0,1.0,10.0,21.875)"><text id="ProcessOnText1046" fill="#cc0000" font-size="13" x="19.0" y="13.325" font-family="Arial" font-weight="normal" font-style="normal" text-decoration="none" family="Arial" text-anchor="middle" size="13">p4</text></g></g><g id="ProcessOnG1047" transform="matrix(1.0,0.0,0.0,1.0,342.0,588.0)" opacity="1.0"><path id="ProcessOnPath1048" d="M0.0 0.0L42.0 0.0L42.0 34.0L0.0 34.0Z" stroke="none" stroke-width="0.0" stroke-dasharray="none" fill="none"/><g id="ProcessOnG1049" transform="matrix(1.0,0.0,0.0,1.0,0.0,8.875)"><text id="ProcessOnText1050" fill="#cc00cc" font-size="13" x="20.0" y="13.325" font-family="Arial" font-weight="normal" font-style="normal" text-decoration="none" family="Arial" text-anchor="middle" size="13">64</text></g></g><g id="ProcessOnG1051" transform="matrix(1.0,0.0,0.0,1.0,449.0,588.0)" opacity="1.0"><path id="ProcessOnPath1052" d="M0.0 0.0L42.0 0.0L42.0 34.0L0.0 34.0Z" stroke="none" stroke-width="0.0" stroke-dasharray="none" fill="none"/><g id="ProcessOnG1053" transform="matrix(1.0,0.0,0.0,1.0,0.0,8.875)"><text id="ProcessOnText1054" fill="#cc00cc" font-size="13" x="20.0" y="13.325" font-family="Arial" font-weight="normal" font-style="normal" text-decoration="none" family="Arial" text-anchor="middle" size="13">32</text></g></g><g id="ProcessOnG1055" transform="matrix(1.0,0.0,0.0,1.0,551.5,555.0)" opacity="1.0"><path id="ProcessOnPath1056" d="M0.0 0.0L35.0 0.0L35.0 33.0L0.0 33.0Z" stroke="#ff0000" stroke-width="2.0" stroke-dasharray="none" fill="#ffffed"/></g><g id="ProcessOnG1057" transform="matrix(1.0,0.0,0.0,1.0,535.5,588.0)" opacity="1.0"><path id="ProcessOnPath1058" d="M0.0 0.0L42.0 0.0L42.0 34.0L0.0 34.0Z" stroke="none" stroke-width="0.0" stroke-dasharray="none" fill="none"/><g id="ProcessOnG1059" transform="matrix(1.0,0.0,0.0,1.0,0.0,8.875)"><text id="ProcessOnText1060" fill="#cc00cc" font-size="13" x="20.0" y="13.325" font-family="Arial" font-weight="normal" font-style="normal" text-decoration="none" family="Arial" text-anchor="middle" size="13">16</text></g></g><g id="ProcessOnG1061" transform="matrix(1.0,0.0,0.0,1.0,620.25,561.0)" opacity="1.0"><path id="ProcessOnPath1062" d="M0.0 0.0L24.75 0.0L24.75 27.0L0.0 27.0Z" stroke="#ff0000" stroke-width="2.0" stroke-dasharray="none" fill="#ffffed"/></g><g id="ProcessOnG1063" transform="matrix(1.0,0.0,0.0,1.0,608.0,588.0)" opacity="1.0"><path id="ProcessOnPath1064" d="M0.0 0.0L42.0 0.0L42.0 34.0L0.0 34.0Z" stroke="none" stroke-width="0.0" stroke-dasharray="none" fill="none"/><g id="ProcessOnG1065" transform="matrix(1.0,0.0,0.0,1.0,0.0,8.875)"><text id="ProcessOnText1066" fill="#cc00cc" font-size="13" x="20.0" y="13.325" font-family="Arial" font-weight="normal" font-style="normal" text-decoration="none" family="Arial" text-anchor="middle" size="13">8</text></g></g><g id="ProcessOnG1067" transform="matrix(1.0,0.0,0.0,1.0,600.25,695.5)" opacity="1.0"><path id="ProcessOnPath1068" d="M0.0 0.0L20.0 0.0L20.0 20.0L0.0 20.0Z" stroke="#ff0000" stroke-width="2.0" stroke-dasharray="none" fill="#ffffed"/></g><g id="ProcessOnG1069"><path id="ProcessOnPath1070" d="M601.6178821817552 695.595760221445L621.0353318532759 587.3808000082587" stroke="#ff0000" stroke-width="2.0" stroke-dasharray="10.0 4.0" fill="none"/></g><g id="ProcessOnG1071"><path id="ProcessOnPath1072" d="M619.3357864376269 695.9142135623731L644.9411703752304 587.4068822366867" stroke="#ff0000" stroke-width="2.0" stroke-dasharray="10.0 4.0" fill="none"/></g><g id="ProcessOnG1073" transform="matrix(1.0,0.0,0.0,1.0,600.25,715.5)" opacity="1.0"><path id="ProcessOnPath1074" d="M0.0 0.0L20.0 0.0L20.0 24.0L0.0 24.0Z" stroke="none" stroke-width="0.0" stroke-dasharray="none" fill="none"/><g id="ProcessOnG1075" transform="matrix(1.0,0.0,0.0,1.0,0.0,3.875)"><text id="ProcessOnText1076" fill="#cc0000" font-size="13" x="9.0" y="13.325" font-family="Arial" font-weight="normal" font-style="normal" text-decoration="none" family="Arial" text-anchor="middle" size="13">4</text></g></g><g id="ProcessOnG1077" transform="matrix(1.0,0.0,0.0,1.0,503.5,695.5)" opacity="1.0"><path id="ProcessOnPath1078" d="M0.0 0.0L20.0 0.0L20.0 20.0L0.0 20.0Z" stroke="#ff0000" stroke-width="2.0" stroke-dasharray="none" fill="#ffffed"/></g><g id="ProcessOnG1079" transform="matrix(1.0,0.0,0.0,1.0,503.5,719.0)" opacity="1.0"><path id="ProcessOnPath1080" d="M0.0 0.0L20.0 0.0L20.0 20.0L0.0 20.0Z" stroke="none" stroke-width="0.0" stroke-dasharray="none" fill="none"/><g id="ProcessOnG1081" transform="matrix(1.0,0.0,0.0,1.0,0.0,1.875)"><text id="ProcessOnText1082" fill="#cc0000" font-size="13" x="9.0" y="13.325" font-family="Arial" font-weight="normal" font-style="normal" text-decoration="none" family="Arial" text-anchor="middle" size="13">4</text></g></g><g id="ProcessOnG1083"><path id="ProcessOnPath1084" d="M552.7943057454041 587.7233918228441L503.9142135623731 695.9142135623731" stroke="#ff0000" stroke-width="2.0" stroke-dasharray="10.0 4.0" fill="none"/></g><g id="ProcessOnG1085"><path id="ProcessOnPath1086" d="M585.9037333412862 587.1432743418808L523.2018666706431 696.4283628290597" stroke="#ff0000" stroke-width="2.0" stroke-dasharray="10.0 4.0" fill="none"/></g><g id="ProcessOnG1087" transform="matrix(1.0,0.0,0.0,1.0,373.0,695.5)" opacity="1.0"><path id="ProcessOnPath1088" d="M0.0 0.0L20.0 0.0L20.0 20.0L0.0 20.0Z" stroke="#ff0000" stroke-width="2.0" stroke-dasharray="none" fill="#ffffed"/></g><g id="ProcessOnG1089"><path id="ProcessOnPath1090" d="M456.457456132867 586.2792706909469L374.2943057454042 696.2766081771559" stroke="#ff0000" stroke-width="2.0" stroke-dasharray="10.0 4.0" fill="none"/></g><g id="ProcessOnG1091"><path id="ProcessOnPath1092" d="M515.9358222275241 587.4288495612539L391.85284712729793 695.638304088578" stroke="#ff0000" stroke-width="2.0" stroke-dasharray="10.0 4.0" fill="none"/></g><g id="ProcessOnG1093" transform="matrix(1.0,0.0,0.0,1.0,298.5,695.5)" opacity="1.0"><path id="ProcessOnPath1094" d="M0.0 0.0L20.0 0.0L20.0 20.0L0.0 20.0Z" stroke="#ff0000" stroke-width="2.0" stroke-dasharray="none" fill="#ffffed"/></g><g id="ProcessOnG1095"><path id="ProcessOnPath1096" d="M307.57115043874614 587.9358222275241L299.9583278321849 696.3441545092566" stroke="#ff0000" stroke-width="2.0" stroke-dasharray="10.0 4.0" fill="none"/></g><g id="ProcessOnG1097"><path id="ProcessOnPath1098" d="M426.42884956125386 587.9358222275241L318.4019237886467 697.5" stroke="#ff0000" stroke-width="2.0" stroke-dasharray="10.0 4.0" fill="none"/></g><g id="ProcessOnG1099" transform="matrix(1.0,0.0,0.0,1.0,298.5,695.5)" opacity="1.0"><path id="ProcessOnPath1100" d="M0.0 0.0L20.0 0.0L20.0 20.0L0.0 20.0Z" stroke="none" stroke-width="0.0" stroke-dasharray="none" fill="none"/><g id="ProcessOnG1101" transform="matrix(1.0,0.0,0.0,1.0,0.0,1.875)"><text id="ProcessOnText1102" fill="#323232" font-size="13" x="9.0" y="13.325" font-family="Arial" font-weight="normal" font-style="normal" text-decoration="none" family="Arial" text-anchor="middle" size="13">p5</text></g></g><g id="ProcessOnG1103" transform="matrix(1.0,0.0,0.0,1.0,664.125,584.0)" opacity="1.0"><path id="ProcessOnPath1104" d="M0.0 0.0L95.75 0.0L95.75 42.0L0.0 42.0Z" stroke="none" stroke-width="0.0" stroke-dasharray="none" fill="none"/><g id="ProcessOnG1105" transform="matrix(1.0,0.0,0.0,1.0,0.0,12.875)"><text id="ProcessOnText1106" fill="#cc00cc" font-size="13" x="46.875" y="13.325" font-family="Arial" font-weight="normal" font-style="normal" text-decoration="none" family="Arial" text-anchor="middle" size="13">rpn base sizes</text></g></g><g id="ProcessOnG1107" transform="matrix(1.0,0.0,0.0,1.0,611.0,643.5)" opacity="1.0"><path id="ProcessOnPath1108" d="M0.0 0.0L21.0 0.0L21.0 20.0L0.0 20.0Z" stroke="none" stroke-width="0.0" stroke-dasharray="none" fill="none"/><g id="ProcessOnG1109" transform="matrix(1.0,0.0,0.0,1.0,0.0,1.875)"><text id="ProcessOnText1110" fill="#0066cc" font-size="13" x="9.5" y="13.325" font-family="Arial" font-weight="normal" font-style="normal" text-decoration="none" family="Arial" text-anchor="middle" size="13">x2</text></g></g><g id="ProcessOnG1111" transform="matrix(1.0,0.0,0.0,1.0,523.5,643.5)" opacity="1.0"><path id="ProcessOnPath1112" d="M0.0 0.0L21.0 0.0L21.0 20.0L0.0 20.0Z" stroke="none" stroke-width="0.0" stroke-dasharray="none" fill="none"/><g id="ProcessOnG1113" transform="matrix(1.0,0.0,0.0,1.0,0.0,1.875)"><text id="ProcessOnText1114" fill="#0066cc" font-size="13" x="9.5" y="13.325" font-family="Arial" font-weight="normal" font-style="normal" text-decoration="none" family="Arial" text-anchor="middle" size="13">x4</text></g></g><g id="ProcessOnG1115" transform="matrix(1.0,0.0,0.0,1.0,413.0,643.5)" opacity="1.0"><path id="ProcessOnPath1116" d="M0.0 0.0L21.0 0.0L21.0 20.0L0.0 20.0Z" stroke="none" stroke-width="0.0" stroke-dasharray="none" fill="none"/><g id="ProcessOnG1117" transform="matrix(1.0,0.0,0.0,1.0,0.0,1.875)"><text id="ProcessOnText1118" fill="#0066cc" font-size="13" x="9.5" y="13.325" font-family="Arial" font-weight="normal" font-style="normal" text-decoration="none" family="Arial" text-anchor="middle" size="13">x8</text></g></g><g id="ProcessOnG1119" transform="matrix(1.0,0.0,0.0,1.0,321.0,643.5)" opacity="1.0"><path id="ProcessOnPath1120" d="M0.0 0.0L27.0 0.0L27.0 20.0L0.0 20.0Z" stroke="none" stroke-width="0.0" stroke-dasharray="none" fill="none"/><g id="ProcessOnG1121" transform="matrix(1.0,0.0,0.0,1.0,0.0,1.875)"><text id="ProcessOnText1122" fill="#0066cc" font-size="13" x="12.5" y="13.325" font-family="Arial" font-weight="normal" font-style="normal" text-decoration="none" family="Arial" text-anchor="middle" size="13">x16</text></g></g><g id="ProcessOnG1123" transform="matrix(1.0,0.0,0.0,1.0,672.5,643.5)" opacity="1.0"><path id="ProcessOnPath1124" d="M0.0 0.0L79.0 0.0L79.0 20.0L0.0 20.0Z" stroke="none" stroke-width="0.0" stroke-dasharray="none" fill="none"/><g id="ProcessOnG1125" transform="matrix(1.0,0.0,0.0,1.0,0.0,1.875)"><text id="ProcessOnText1126" fill="#0066cc" font-size="13" x="38.5" y="13.325" font-family="Arial" font-weight="normal" font-style="normal" text-decoration="none" family="Arial" text-anchor="middle" size="13">rpn scales</text></g></g><g id="ProcessOnG1127" transform="matrix(1.0,0.0,0.0,1.0,357.0,715.5)" opacity="1.0"><path id="ProcessOnPath1128" d="M0.0 0.0L20.0 0.0L20.0 20.0L0.0 20.0Z" stroke="none" stroke-width="0.0" stroke-dasharray="none" fill="none"/><g id="ProcessOnG1129" transform="matrix(1.0,0.0,0.0,1.0,0.0,1.875)"><text id="ProcessOnText1130" fill="#323232" font-size="13" x="9.0" y="13.325" font-family="Arial" font-weight="normal" font-style="normal" text-decoration="none" family="Arial" text-anchor="middle" size="13">p4</text></g></g><g id="ProcessOnG1131" transform="matrix(1.0,0.0,0.0,1.0,454.0,459.0)" opacity="1.0"><path id="ProcessOnPath1132" d="M0.0 0.0L160.0 0.0L160.0 40.0L0.0 40.0Z" stroke="none" stroke-width="0.0" stroke-dasharray="none" fill="none"/><g id="ProcessOnG1133" transform="matrix(1.0,0.0,0.0,1.0,0.0,11.875)"><text id="ProcessOnText1134" fill="#323232" font-size="13" x="79.0" y="13.325" font-family="Arial" font-weight="normal" font-style="normal" text-decoration="none" family="Arial" text-anchor="middle" size="13">Image 256*256</text></g></g><g id="ProcessOnG1135" transform="matrix(1.0,0.0,0.0,1.0,556.0,561.5)" opacity="1.0"><path id="ProcessOnPath1136" d="M0.0 0.0L26.0 0.0L26.0 22.5L0.0 22.5Z" stroke="none" stroke-width="0.0" stroke-dasharray="none" fill="none"/><g id="ProcessOnG1137" transform="matrix(1.0,0.0,0.0,1.0,0.0,3.125)"><text id="ProcessOnText1138" fill="#cc0000" font-size="13" x="12.0" y="13.325" font-family="Arial" font-weight="normal" font-style="normal" text-decoration="none" family="Arial" text-anchor="middle" size="13">p3</text></g></g><g id="ProcessOnG1139" transform="matrix(1.0,0.0,0.0,1.0,620.25,565.5)" opacity="1.0"><path id="ProcessOnPath1140" d="M0.0 0.0L26.0 0.0L26.0 22.5L0.0 22.5Z" stroke="none" stroke-width="0.0" stroke-dasharray="none" fill="none"/><g id="ProcessOnG1141" transform="matrix(1.0,0.0,0.0,1.0,0.0,3.125)"><text id="ProcessOnText1142" fill="#cc0000" font-size="13" x="12.0" y="13.325" font-family="Arial" font-weight="normal" font-style="normal" text-decoration="none" family="Arial" text-anchor="middle" size="13">p2</text></g></g><g id="ProcessOnG1143"><path id="ProcessOnPath1144" d="M545.0 820.0L783.5 820.0" stroke="#323232" stroke-width="2.0" stroke-dasharray="10.0 4.0" fill="none"/></g><g id="ProcessOnG1145"><path id="ProcessOnPath1146" d="M291.0 409.0L783.5 409.0" stroke="#323232" stroke-width="2.0" stroke-dasharray="10.0 4.0" fill="none"/></g><g id="ProcessOnG1147" transform="matrix(1.0,0.0,0.0,1.0,406.0,814.0)" opacity="1.0"><path id="ProcessOnPath1148" d="M0.0 0.0L256.0 0.0L256.0 38.0L0.0 38.0Z" stroke="none" stroke-width="0.0" stroke-dasharray="none" fill="none"/><g id="ProcessOnG1149" transform="matrix(1.0,0.0,0.0,1.0,0.0,10.875)"><text id="ProcessOnText1150" fill="#323232" font-size="13" x="127.0" y="13.325" font-family="Arial" font-weight="bold" font-style="normal" text-decoration="none" family="Arial" text-anchor="middle" size="13">Feature Map and Anchor Boxes</text></g></g></g></g></svg>