<svg xmlns="http://www.w3.org/2000/svg" xmlns:xlink="http://www.w3.org/1999/xlink" id="processonSvg1000" viewBox="65.0 94.0 913.0 514.0" width="913.0" height="514.0"><defs id="ProcessOnDefs1001"><marker id="ProcessOnMarker1044" markerUnits="userSpaceOnUse" orient="auto" markerWidth="16.23606797749979" markerHeight="10.550836550532098" viewBox="-1.0 -1.3763819204711736 16.23606797749979 10.550836550532098" refX="-1.0" refY="3.8990363547948754"><path id="ProcessOnPath1045" d="M12.0 3.8990363547948754L0.0 7.798072709589751V0.0Z" stroke="#000000" stroke-width="2.0" fill="#000000" transform="matrix(1.0,0.0,0.0,1.0,0.0,0.0)"/></marker><marker id="ProcessOnMarker1048" markerUnits="userSpaceOnUse" orient="auto" markerWidth="16.23606797749979" markerHeight="10.550836550532098" viewBox="-1.0 -1.3763819204711736 16.23606797749979 10.550836550532098" refX="-1.0" refY="3.8990363547948754"><path id="ProcessOnPath1049" d="M12.0 3.8990363547948754L0.0 7.798072709589751V0.0Z" stroke="#000000" stroke-width="2.0" fill="#000000" transform="matrix(1.0,0.0,0.0,1.0,0.0,0.0)"/></marker><marker id="ProcessOnMarker1062" markerUnits="userSpaceOnUse" orient="auto" markerWidth="16.23606797749979" markerHeight="10.550836550532098" viewBox="-1.0 -1.3763819204711736 16.23606797749979 10.550836550532098" refX="-1.0" refY="3.8990363547948754"><path id="ProcessOnPath1063" d="M12.0 3.8990363547948754L0.0 7.798072709589751V0.0Z" stroke="#000000" stroke-width="2.0" fill="#000000" transform="matrix(1.0,0.0,0.0,1.0,0.0,0.0)"/></marker><marker id="ProcessOnMarker1066" markerUnits="userSpaceOnUse" orient="auto" markerWidth="16.23606797749979" markerHeight="10.550836550532098" viewBox="-1.0 -1.3763819204711736 16.23606797749979 10.550836550532098" refX="-1.0" refY="3.8990363547948754"><path id="ProcessOnPath1067" d="M12.0 3.8990363547948754L0.0 7.798072709589751V0.0Z" stroke="#000000" stroke-width="2.0" fill="#000000" transform="matrix(1.0,0.0,0.0,1.0,0.0,0.0)"/></marker><marker id="ProcessOnMarker1079" markerUnits="userSpaceOnUse" orient="auto" markerWidth="16.23606797749979" markerHeight="10.550836550532098" viewBox="-1.0 -1.3763819204711736 16.23606797749979 10.550836550532098" refX="-1.0" refY="3.8990363547948754"><path id="ProcessOnPath1080" d="M12.0 3.8990363547948754L0.0 7.798072709589751V0.0Z" stroke="#000000" stroke-width="2.0" fill="#000000" transform="matrix(1.0,0.0,0.0,1.0,0.0,0.0)"/></marker><marker id="ProcessOnMarker1083" markerUnits="userSpaceOnUse" orient="auto" markerWidth="16.23606797749979" markerHeight="10.550836550532098" viewBox="-1.0 -1.3763819204711736 16.23606797749979 10.550836550532098" refX="-1.0" refY="3.8990363547948754"><path id="ProcessOnPath1084" d="M12.0 3.8990363547948754L0.0 7.798072709589751V0.0Z" stroke="#000000" stroke-width="2.0" fill="#000000" transform="matrix(1.0,0.0,0.0,1.0,0.0,0.0)"/></marker><marker id="ProcessOnMarker1087" markerUnits="userSpaceOnUse" orient="auto" markerWidth="16.23606797749979" markerHeight="10.550836550532098" viewBox="-1.0 -1.3763819204711736 16.23606797749979 10.550836550532098" refX="-1.0" refY="3.8990363547948754"><path id="ProcessOnPath1088" d="M12.0 3.8990363547948754L0.0 7.798072709589751V0.0Z" stroke="#000000" stroke-width="2.0" fill="#000000" transform="matrix(1.0,0.0,0.0,1.0,0.0,0.0)"/></marker><marker id="ProcessOnMarker1100" markerUnits="userSpaceOnUse" orient="auto" markerWidth="16.23606797749979" markerHeight="10.550836550532098" viewBox="-1.0 -1.3763819204711736 16.23606797749979 10.550836550532098" refX="-1.0" refY="3.8990363547948754"><path id="ProcessOnPath1101" d="M12.0 3.8990363547948754L0.0 7.798072709589751V0.0Z" stroke="#007fff" stroke-width="2.0" fill="#007fff" transform="matrix(1.0,0.0,0.0,1.0,0.0,0.0)"/></marker><marker id="ProcessOnMarker1108" markerUnits="userSpaceOnUse" orient="auto" markerWidth="16.23606797749979" markerHeight="10.550836550532098" viewBox="-1.0 -1.3763819204711736 16.23606797749979 10.550836550532098" refX="-1.0" refY="3.8990363547948754"><path id="ProcessOnPath1109" d="M12.0 3.8990363547948754L0.0 7.798072709589751V0.0Z" stroke="#007fff" stroke-width="2.0" fill="#007fff" transform="matrix(1.0,0.0,0.0,1.0,0.0,0.0)"/></marker><marker id="ProcessOnMarker1112" markerUnits="userSpaceOnUse" orient="auto" markerWidth="16.23606797749979" markerHeight="10.550836550532098" viewBox="-1.0 -1.3763819204711736 16.23606797749979 10.550836550532098" refX="-1.0" refY="3.8990363547948754"><path id="ProcessOnPath1113" d="M12.0 3.8990363547948754L0.0 7.798072709589751V0.0Z" stroke="#007fff" stroke-width="2.0" fill="#007fff" transform="matrix(1.0,0.0,0.0,1.0,0.0,0.0)"/></marker><marker id="ProcessOnMarker1116" markerUnits="userSpaceOnUse" orient="auto" markerWidth="16.23606797749979" markerHeight="10.550836550532098" viewBox="-1.0 -1.3763819204711736 16.23606797749979 10.550836550532098" refX="-1.0" refY="3.8990363547948754"><path id="ProcessOnPath1117" d="M12.0 3.8990363547948754L0.0 7.798072709589751V0.0Z" stroke="#007fff" stroke-width="2.0" fill="#007fff" transform="matrix(1.0,0.0,0.0,1.0,0.0,0.0)"/></marker><marker id="ProcessOnMarker1120" markerUnits="userSpaceOnUse" orient="auto" markerWidth="16.23606797749979" markerHeight="10.550836550532098" viewBox="-1.0 -1.3763819204711736 16.23606797749979 10.550836550532098" refX="-1.0" refY="3.8990363547948754"><path id="ProcessOnPath1121" d="M12.0 3.8990363547948754L0.0 7.798072709589751V0.0Z" stroke="#007fff" stroke-width="2.0" fill="#007fff" transform="matrix(1.0,0.0,0.0,1.0,0.0,0.0)"/></marker><marker id="ProcessOnMarker1124" markerUnits="userSpaceOnUse" orient="auto" markerWidth="16.23606797749979" markerHeight="10.550836550532098" viewBox="-1.0 -1.3763819204711736 16.23606797749979 10.550836550532098" refX="-1.0" refY="3.8990363547948754"><path id="ProcessOnPath1125" d="M12.0 3.8990363547948754L0.0 7.798072709589751V0.0Z" stroke="#007fff" stroke-width="2.0" fill="#007fff" transform="matrix(1.0,0.0,0.0,1.0,0.0,0.0)"/></marker><marker id="ProcessOnMarker1133" markerUnits="userSpaceOnUse" orient="auto" markerWidth="16.23606797749979" markerHeight="10.550836550532098" viewBox="-1.0 -1.3763819204711736 16.23606797749979 10.550836550532098" refX="-1.0" refY="3.8990363547948754"><path id="ProcessOnPath1134" d="M12.0 3.8990363547948754L0.0 7.798072709589751V0.0Z" stroke="#000000" stroke-width="2.0" fill="#000000" transform="matrix(1.0,0.0,0.0,1.0,0.0,0.0)"/></marker><marker id="ProcessOnMarker1137" markerUnits="userSpaceOnUse" orient="auto" markerWidth="16.23606797749979" markerHeight="10.550836550532098" viewBox="-1.0 -1.3763819204711736 16.23606797749979 10.550836550532098" refX="-1.0" refY="3.8990363547948754"><path id="ProcessOnPath1138" d="M12.0 3.8990363547948754L0.0 7.798072709589751V0.0Z" stroke="#323232" stroke-width="2.0" fill="#323232" transform="matrix(1.0,0.0,0.0,1.0,0.0,0.0)"/></marker><marker id="ProcessOnMarker1141" markerUnits="userSpaceOnUse" orient="auto" markerWidth="16.23606797749979" markerHeight="10.550836550532098" viewBox="-1.0 -1.3763819204711736 16.23606797749979 10.550836550532098" refX="-1.0" refY="3.8990363547948754"><path id="ProcessOnPath1142" d="M12.0 3.8990363547948754L0.0 7.798072709589751V0.0Z" stroke="#323232" stroke-width="2.0" fill="#323232" transform="matrix(1.0,0.0,0.0,1.0,0.0,0.0)"/></marker><marker id="ProcessOnMarker1153" markerUnits="userSpaceOnUse" orient="auto" markerWidth="16.23606797749979" markerHeight="10.550836550532098" viewBox="-1.0 -1.3763819204711736 16.23606797749979 10.550836550532098" refX="-1.0" refY="3.8990363547948754"><path id="ProcessOnPath1154" d="M12.0 3.8990363547948754L0.0 7.798072709589751V0.0Z" stroke="#000000" stroke-width="2.0" fill="#000000" transform="matrix(1.0,0.0,0.0,1.0,0.0,0.0)"/></marker><marker id="ProcessOnMarker1169" markerUnits="userSpaceOnUse" orient="auto" markerWidth="16.23606797749979" markerHeight="10.550836550532098" viewBox="-1.0 -1.3763819204711736 16.23606797749979 10.550836550532098" refX="-1.0" refY="3.8990363547948754"><path id="ProcessOnPath1170" d="M12.0 3.8990363547948754L0.0 7.798072709589751V0.0Z" stroke="#007fff" stroke-width="2.0" fill="#007fff" transform="matrix(1.0,0.0,0.0,1.0,0.0,0.0)"/></marker></defs><g id="ProcessOnG1002"><path id="ProcessOnPath1003" d="M65.0 94.0H978.0V608.0H65.0V94.0Z" fill="none"/><g id="ProcessOnG1004"><g id="ProcessOnG1005" transform="matrix(1.0,0.0,0.0,1.0,85.0,114.0)" opacity="1.0"><path id="ProcessOnPath1006" d="M0.0 0.0L873.0 0.0L873.0 474.0L0.0 474.0Z" stroke="#323232" stroke-width="2.0" stroke-dasharray="none" opacity="1.0" fill="#ffffff"/></g><g id="ProcessOnG1007" transform="matrix(1.0,0.0,0.0,1.0,101.5,453.0)" opacity="1.0"><path id="ProcessOnPath1008" d="M0.0 0.0L236.5 0.0L236.5 124.0L0.0 124.0Z" stroke="#323232" stroke-width="2.0" stroke-dasharray="none" opacity="1.0" fill="#ffffff"/></g><g id="ProcessOnG1009" transform="matrix(1.0,0.0,0.0,1.0,346.8125,324.03125)" opacity="1.0"><path id="ProcessOnPath1010" d="M0.0 4.0Q0.0 0.0 4.0 0.0L105.625 0.0Q109.625 0.0 109.625 4.0L109.625 119.25Q109.625 123.25 105.625 123.25L4.0 123.25Q0.0 123.25 0.0 119.25Z" stroke="#323232" stroke-width="2.0" stroke-dasharray="none" opacity="1.0" fill="#ffccff"/><g id="ProcessOnG1011" transform="matrix(1.0,0.0,0.0,1.0,10.0,49.125)"><text id="ProcessOnText1012" fill="#000000" font-size="20" x="43.8125" y="20.5" font-family="微软雅黑" font-weight="bold" font-style="normal" text-decoration="none" family="微软雅黑" text-anchor="middle" size="20">RPN</text></g></g><g id="ProcessOnG1013" transform="matrix(1.0,0.0,0.0,1.0,173.0,210.78125)" opacity="1.0"><path id="ProcessOnPath1014" d="M0.0 0.0L113.0 0.0L113.0 41.0L0.0 41.0Z" stroke="#323232" stroke-width="2.0" stroke-dasharray="none" opacity="1.0" fill="#ffffff"/><g id="ProcessOnG1015" transform="matrix(1.0,0.0,0.0,1.0,10.0,4.25)"><text id="ProcessOnText1016" fill="#000000" font-size="13" x="45.5" y="13.325" font-family="微软雅黑" font-weight="normal" font-style="normal" text-decoration="none" family="微软雅黑" text-anchor="middle" size="13">image</text><text id="ProcessOnText1017" fill="#000000" font-size="13" x="45.5" y="29.575" font-family="微软雅黑" font-weight="normal" font-style="normal" text-decoration="none" family="微软雅黑" text-anchor="middle" size="13">[B*(C, H, W)]</text></g></g><g id="ProcessOnG1018" transform="matrix(1.0,0.0,0.0,1.0,481.5,212.40625)" opacity="1.0"><path id="ProcessOnPath1019" d="M0.0 0.0L104.0 0.0L104.0 37.75L0.0 37.75Z" stroke="#323232" stroke-width="2.0" stroke-dasharray="none" opacity="1.0" fill="#ffffff"/><g id="ProcessOnG1020" transform="matrix(1.0,0.0,0.0,1.0,10.0,2.625)"><text id="ProcessOnText1021" fill="#000000" font-size="13" x="41.0" y="13.325" font-family="微软雅黑" font-weight="normal" font-style="normal" text-decoration="none" family="微软雅黑" text-anchor="middle" size="13">truth boxes</text><text id="ProcessOnText1022" fill="#000000" font-size="13" x="41.0" y="29.575" font-family="微软雅黑" font-weight="normal" font-style="normal" text-decoration="none" family="微软雅黑" text-anchor="middle" size="13">[B*(N, 4)]</text></g></g><g id="ProcessOnG1023" transform="matrix(1.0,0.0,0.0,1.0,176.0,285.15625)" opacity="1.0"><path id="ProcessOnPath1024" d="M0.0 4.0Q0.0 0.0 4.0 0.0L103.0 0.0Q107.0 0.0 107.0 4.0L107.0 37.0Q107.0 41.0 103.0 41.0L4.0 41.0Q0.0 41.0 0.0 37.0Z" stroke="#323232" stroke-width="2.0" stroke-dasharray="none" opacity="1.0" fill="#e5e5e5"/><g id="ProcessOnG1025" transform="matrix(1.0,0.0,0.0,1.0,10.0,4.25)"><text id="ProcessOnText1026" fill="#000000" font-size="13" x="42.5" y="13.325" font-family="微软雅黑" font-weight="normal" font-style="normal" text-decoration="none" family="微软雅黑" text-anchor="middle" size="13">backbone</text><text id="ProcessOnText1027" fill="#000000" font-size="13" x="42.5" y="29.575" font-family="微软雅黑" font-weight="normal" font-style="normal" text-decoration="none" family="微软雅黑" text-anchor="middle" size="13">(ResNet-FPN)</text></g></g><g id="ProcessOnG1028" transform="matrix(1.0,0.0,0.0,1.0,149.0,354.234375)" opacity="1.0"><path id="ProcessOnPath1029" d="M0.0 0.0L161.0 0.0L161.0 62.84375L0.0 62.84375Z" stroke="#323232" stroke-width="2.0" stroke-dasharray="none" opacity="1.0" fill="#e5e5e5"/><g id="ProcessOnG1030" transform="matrix(1.0,0.0,0.0,1.0,10.0,7.046875)"><text id="ProcessOnText1031" fill="#000000" font-size="13" x="69.5" y="13.325" font-family="微软雅黑" font-weight="normal" font-style="normal" text-decoration="none" family="微软雅黑" text-anchor="middle" size="13">FPN feature</text><text id="ProcessOnText1032" fill="#000000" font-size="13" x="69.5" y="29.575" font-family="微软雅黑" font-weight="normal" font-style="normal" text-decoration="none" family="微软雅黑" text-anchor="middle" size="13">[f1, f2, f3, f4]</text><text id="ProcessOnText1033" fill="#000000" font-size="13" x="69.5" y="45.825" font-family="微软雅黑" font-weight="normal" font-style="normal" text-decoration="none" family="微软雅黑" text-anchor="middle" size="13">f = (B, channel, h, w)</text></g></g><g id="ProcessOnG1034" transform="matrix(1.0,0.0,0.0,1.0,351.0,398.40625)" opacity="1.0"><path id="ProcessOnPath1035" d="M0.0 4.0Q0.0 0.0 4.0 0.0L96.0 0.0Q100.0 0.0 100.0 4.0L100.0 30.5Q100.0 34.5 96.0 34.5L4.0 34.5Q0.0 34.5 0.0 30.5Z" stroke="#323232" stroke-width="2.0" stroke-dasharray="none" opacity="1.0" fill="#ffccff"/><g id="ProcessOnG1036" transform="matrix(1.0,0.0,0.0,1.0,10.0,9.125)"><text id="ProcessOnText1037" fill="#000000" font-size="13" x="39.0" y="13.325" font-family="微软雅黑" font-weight="normal" font-style="normal" text-decoration="none" family="微软雅黑" text-anchor="middle" size="13">delta branch</text></g></g><g id="ProcessOnG1038" transform="matrix(1.0,0.0,0.0,1.0,351.0,338.40625)" opacity="1.0"><path id="ProcessOnPath1039" d="M0.0 4.0Q0.0 0.0 4.0 0.0L96.0 0.0Q100.0 0.0 100.0 4.0L100.0 30.5Q100.0 34.5 96.0 34.5L4.0 34.5Q0.0 34.5 0.0 30.5Z" stroke="#323232" stroke-width="2.0" stroke-dasharray="none" opacity="1.0" fill="#ffccff"/><g id="ProcessOnG1040" transform="matrix(1.0,0.0,0.0,1.0,10.0,9.125)"><text id="ProcessOnText1041" fill="#000000" font-size="13" x="39.0" y="13.325" font-family="微软雅黑" font-weight="normal" font-style="normal" text-decoration="none" family="微软雅黑" text-anchor="middle" size="13">logic branch</text></g></g><g id="ProcessOnG1042"><path id="ProcessOnPath1043" d="M310.0 385.65625L330.5 385.65625L330.5 355.65625L335.7639320225002 355.65625" stroke="#000000" stroke-width="2.0" stroke-dasharray="none" fill="none" marker-end="url(#ProcessOnMarker1044)"/></g><g id="ProcessOnG1046"><path id="ProcessOnPath1047" d="M310.0 385.65625L330.5 385.65625L330.5 415.65625L335.7639320225002 415.65625" stroke="#000000" stroke-width="2.0" stroke-dasharray="none" fill="none" marker-end="url(#ProcessOnMarker1048)"/></g><g id="ProcessOnG1050" transform="matrix(1.0,0.0,0.0,1.0,481.0,334.78125)" opacity="1.0"><path id="ProcessOnPath1051" d="M0.0 0.0L105.0 0.0L105.0 41.75L0.0 41.75Z" stroke="#323232" stroke-width="2.0" stroke-dasharray="none" opacity="1.0" fill="#ffccff"/><g id="ProcessOnG1052" transform="matrix(1.0,0.0,0.0,1.0,10.0,4.625)"><text id="ProcessOnText1053" fill="#000000" font-size="13" x="41.5" y="13.325" font-family="微软雅黑" font-weight="normal" font-style="normal" text-decoration="none" family="微软雅黑" text-anchor="middle" size="13">anchor logits</text><text id="ProcessOnText1054" fill="#000000" font-size="13" x="41.5" y="29.575" font-family="微软雅黑" font-weight="normal" font-style="normal" text-decoration="none" family="微软雅黑" text-anchor="middle" size="13">(B, M, 2)</text></g></g><g id="ProcessOnG1055" transform="matrix(1.0,0.0,0.0,1.0,481.0,396.78125)" opacity="1.0"><path id="ProcessOnPath1056" d="M0.0 0.0L105.0 0.0L105.0 37.75L0.0 37.75Z" stroke="#323232" stroke-width="2.0" stroke-dasharray="none" opacity="1.0" fill="#ffccff"/><g id="ProcessOnG1057" transform="matrix(1.0,0.0,0.0,1.0,10.0,2.625)"><text id="ProcessOnText1058" fill="#000000" font-size="13" x="41.5" y="13.325" font-family="微软雅黑" font-weight="normal" font-style="normal" text-decoration="none" family="微软雅黑" text-anchor="middle" size="13">anchor deltas</text><text id="ProcessOnText1059" fill="#000000" font-size="13" x="41.5" y="29.575" font-family="微软雅黑" font-weight="normal" font-style="normal" text-decoration="none" family="微软雅黑" text-anchor="middle" size="13">(B, M, 2, 4)</text></g></g><g id="ProcessOnG1060"><path id="ProcessOnPath1061" d="M451.0 355.65625L466.0 355.65625L466.0 355.65625L467.0 355.65625" stroke="#000000" stroke-width="2.0" stroke-dasharray="none" fill="none" marker-end="url(#ProcessOnMarker1062)"/></g><g id="ProcessOnG1064"><path id="ProcessOnPath1065" d="M451.0 415.65625L466.0 415.65625L466.0 415.65625L467.0 415.65625" stroke="#000000" stroke-width="2.0" stroke-dasharray="none" fill="none" marker-end="url(#ProcessOnMarker1066)"/></g><g id="ProcessOnG1068" transform="matrix(1.0,0.0,0.0,1.0,481.0,269.15625)" opacity="1.0"><path id="ProcessOnPath1069" d="M0.0 0.0L105.0 0.0L105.0 40.5L0.0 40.5Z" stroke="#323232" stroke-width="2.0" stroke-dasharray="none" opacity="1.0" fill="#ffccff"/><g id="ProcessOnG1070" transform="matrix(1.0,0.0,0.0,1.0,10.0,4.0)"><text id="ProcessOnText1071" fill="#000000" font-size="13" x="41.5" y="13.325" font-family="微软雅黑" font-weight="normal" font-style="normal" text-decoration="none" family="微软雅黑" text-anchor="middle" size="13">anchor boxes</text><text id="ProcessOnText1072" fill="#000000" font-size="13" x="41.5" y="29.575" font-family="微软雅黑" font-weight="normal" font-style="normal" text-decoration="none" family="微软雅黑" text-anchor="middle" size="13">(M, 4)</text></g></g><g id="ProcessOnG1073" transform="matrix(1.0,0.0,0.0,1.0,686.0,335.15625)" opacity="1.0"><path id="ProcessOnPath1074" d="M0.0 20.5C0.0 -6.833333333333333 104.0 -6.833333333333333 104.0 20.5C104.0 47.833333333333336 0.0 47.833333333333336 0.0 20.5Z" stroke="#323232" stroke-width="2.0" stroke-dasharray="none" opacity="1.0" fill="#ffccff"/><g id="ProcessOnG1075" transform="matrix(1.0,0.0,0.0,1.0,10.0,12.375)"><text id="ProcessOnText1076" fill="#000000" font-size="13" x="41.0" y="13.325" font-family="微软雅黑" font-weight="bold" font-style="normal" text-decoration="none" family="微软雅黑" text-anchor="middle" size="13">RPN NMS</text></g></g><g id="ProcessOnG1077"><path id="ProcessOnPath1078" d="M586.0 355.65625L636.0 355.65625L636.0 355.65625L670.7639320225002 355.65625" stroke="#000000" stroke-width="2.0" stroke-dasharray="none" fill="none" marker-end="url(#ProcessOnMarker1079)"/></g><g id="ProcessOnG1081"><path id="ProcessOnPath1082" d="M586.0 415.65625L646.0 415.65625L646.0 355.65625L670.7639320225002 355.65625" stroke="#000000" stroke-width="2.0" stroke-dasharray="none" fill="none" marker-end="url(#ProcessOnMarker1083)"/></g><g id="ProcessOnG1085"><path id="ProcessOnPath1086" d="M586.0 289.40625L646.0 289.40625L646.0 355.65625L670.7639320225002 355.65625" stroke="#000000" stroke-width="2.0" stroke-dasharray="none" fill="none" marker-end="url(#ProcessOnMarker1087)"/></g><g id="ProcessOnG1089" transform="matrix(1.0,0.0,0.0,1.0,300.75,155.90625)" opacity="1.0"><path id="ProcessOnPath1090" d="M0.0 20.5C0.0 -6.833333333333333 123.5 -6.833333333333333 123.5 20.5C123.5 47.833333333333336 0.0 47.833333333333336 0.0 20.5Z" stroke="#323232" stroke-width="2.0" stroke-dasharray="none" opacity="1.0" fill="#ccffff"/><g id="ProcessOnG1091" transform="matrix(1.0,0.0,0.0,1.0,10.0,12.375)"><text id="ProcessOnText1092" fill="#000000" font-size="13" x="50.75" y="13.325" font-family="微软雅黑" font-weight="normal" font-style="normal" text-decoration="none" family="微软雅黑" text-anchor="middle" size="13">make rpn target</text></g></g><g id="ProcessOnG1093" transform="matrix(1.0,0.0,0.0,1.0,460.625,152.71875)" opacity="1.0"><path id="ProcessOnPath1094" d="M0.0 0.0L145.75 0.0L145.75 47.375L0.0 47.375Z" stroke="#323232" stroke-width="2.0" stroke-dasharray="none" opacity="1.0" fill="#ccffff"/><g id="ProcessOnG1095" transform="matrix(1.0,0.0,0.0,1.0,10.0,7.4375)"><text id="ProcessOnText1096" fill="#000000" font-size="13" x="61.875" y="13.325" font-family="微软雅黑" font-weight="normal" font-style="normal" text-decoration="none" family="微软雅黑" text-anchor="middle" size="13">truth label/weight</text><text id="ProcessOnText1097" fill="#000000" font-size="13" x="61.875" y="29.575" font-family="微软雅黑" font-weight="normal" font-style="normal" text-decoration="none" family="微软雅黑" text-anchor="middle" size="13">target delta/weight</text></g></g><g id="ProcessOnG1098"><path id="ProcessOnPath1099" d="M424.25 176.40625L442.4375 176.40625L442.4375 176.40625L445.3889320225002 176.40625" stroke="#007fff" stroke-width="2.0" stroke-dasharray="none" fill="none" marker-end="url(#ProcessOnMarker1100)"/></g><g id="ProcessOnG1102" transform="matrix(1.0,0.0,0.0,1.0,650.0,156.15625)" opacity="1.0"><path id="ProcessOnPath1103" d="M0.0 0.0L86.0 0.0L86.0 40.5L0.0 40.5Z" stroke="#323232" stroke-width="2.0" stroke-dasharray="none" opacity="1.0" fill="#ccffff"/><g id="ProcessOnG1104" transform="matrix(1.0,0.0,0.0,1.0,10.0,12.125)"><text id="ProcessOnText1105" fill="#000000" font-size="13" x="32.0" y="13.325" font-family="微软雅黑" font-weight="normal" font-style="normal" text-decoration="none" family="微软雅黑" text-anchor="middle" size="13">rpn loss</text></g></g><g id="ProcessOnG1106"><path id="ProcessOnPath1107" d="M586.0 355.65625L618.0 355.65625L618.0 176.40625L634.7639320225002 176.40625" stroke="#007fff" stroke-width="2.0" stroke-dasharray="none" fill="none" marker-end="url(#ProcessOnMarker1108)"/></g><g id="ProcessOnG1110"><path id="ProcessOnPath1111" d="M481.0 289.40625L362.5 289.40625L362.5 212.1423179774998" stroke="#007fff" stroke-width="2.0" stroke-dasharray="none" fill="none" marker-end="url(#ProcessOnMarker1112)"/></g><g id="ProcessOnG1114"><path id="ProcessOnPath1115" d="M586.0 415.65625L618.0 415.65625L618.0 176.40625L634.7639320225002 176.40625" stroke="#007fff" stroke-width="2.0" stroke-dasharray="none" fill="none" marker-end="url(#ProcessOnMarker1116)"/></g><g id="ProcessOnG1118"><path id="ProcessOnPath1119" d="M606.375 176.40625L628.1875 176.40625L628.1875 176.40625L634.7639320225002 176.40625" stroke="#007fff" stroke-width="2.0" stroke-dasharray="none" fill="none" marker-end="url(#ProcessOnMarker1120)"/></g><g id="ProcessOnG1122"><path id="ProcessOnPath1123" d="M481.5 231.28125L362.5 231.28125L362.5 212.1423179774998" stroke="#007fff" stroke-width="2.0" stroke-dasharray="none" fill="none" marker-end="url(#ProcessOnMarker1124)"/></g><g id="ProcessOnG1126" transform="matrix(1.0,0.0,0.0,1.0,817.0,338.40625)" opacity="1.0"><path id="ProcessOnPath1127" d="M0.0 0.0L115.0 0.0L115.0 34.5L0.0 34.5Z" stroke="#323232" stroke-width="2.0" stroke-dasharray="none" opacity="1.0" fill="#ffccff"/><g id="ProcessOnG1128" transform="matrix(1.0,0.0,0.0,1.0,10.0,1.0)"><text id="ProcessOnText1129" fill="#000000" font-size="13" x="46.5" y="13.325" font-family="微软雅黑" font-weight="normal" font-style="normal" text-decoration="none" family="微软雅黑" text-anchor="middle" size="13">RPN proposals</text><text id="ProcessOnText1130" fill="#000000" font-size="13" x="46.5" y="29.575" font-family="微软雅黑" font-weight="normal" font-style="normal" text-decoration="none" family="微软雅黑" text-anchor="middle" size="13">(R, 7)</text></g></g><g id="ProcessOnG1131"><path id="ProcessOnPath1132" d="M790.0 355.65625L803.5 355.65625L803.5 355.65625L804.5 355.65625" stroke="#000000" stroke-width="2.0" stroke-dasharray="none" fill="none" marker-end="url(#ProcessOnMarker1133)"/></g><g id="ProcessOnG1135"><path id="ProcessOnPath1136" d="M229.5 326.15625L229.5 340.1953125L229.5 340.1953125L229.5 341.1953125" stroke="#323232" stroke-width="2.0" stroke-dasharray="none" fill="none" marker-end="url(#ProcessOnMarker1137)"/></g><g id="ProcessOnG1139"><path id="ProcessOnPath1140" d="M229.5 251.78125L229.5 268.46875L229.5 268.46875L229.5 269.9201820225002" stroke="#323232" stroke-width="2.0" stroke-dasharray="none" fill="none" marker-end="url(#ProcessOnMarker1141)"/></g><g id="ProcessOnG1143" transform="matrix(1.0,0.0,0.0,1.0,120.0,514.0)" opacity="1.0"><path id="ProcessOnPath1144" d="M0.0 0.0L63.0 0.0L63.0 24.0L0.0 24.0Z" stroke="#323232" stroke-width="2.0" stroke-dasharray="none" opacity="1.0" fill="#ffffff"/><g id="ProcessOnG1145" transform="matrix(1.0,0.0,0.0,1.0,10.0,3.875)"><text id="ProcessOnText1146" fill="#000000" font-size="13" x="20.5" y="13.325" font-family="微软雅黑" font-weight="normal" font-style="normal" text-decoration="none" family="微软雅黑" text-anchor="middle" size="13">data</text></g></g><g id="ProcessOnG1147" transform="matrix(1.0,0.0,0.0,1.0,106.75,544.53125)" opacity="1.0"><path id="ProcessOnPath1148" d="M0.0 13.734375C0.0 -4.578125 89.5 -4.578125 89.5 13.734375C89.5 32.046875 0.0 32.046875 0.0 13.734375Z" stroke="#323232" stroke-width="2.0" stroke-dasharray="none" opacity="1.0" fill="#ffffff"/><g id="ProcessOnG1149" transform="matrix(1.0,0.0,0.0,1.0,10.0,5.609375)"><text id="ProcessOnText1150" fill="#000000" font-size="13" x="33.75" y="13.325" font-family="微软雅黑" font-weight="normal" font-style="normal" text-decoration="none" family="微软雅黑" text-anchor="middle" size="13">Functions</text></g></g><g id="ProcessOnG1151"><path id="ProcessOnPath1152" d="M216.0 555.0L242.5 555.0L242.5 555.0L253.7639320225002 555.0" stroke="#000000" stroke-width="2.0" stroke-dasharray="none" fill="none" marker-end="url(#ProcessOnMarker1153)"/></g><g id="ProcessOnG1155" transform="matrix(1.0,0.0,0.0,1.0,271.0,510.0)" opacity="1.0"><path id="ProcessOnPath1156" d="M0.0 0.0L67.0 0.0L67.0 28.0L0.0 28.0Z" stroke="none" stroke-width="0.0" stroke-dasharray="none" opacity="1.0" fill="none"/><g id="ProcessOnG1157" transform="matrix(1.0,0.0,0.0,1.0,0.0,5.875)"><text id="ProcessOnText1158" fill="#000000" font-size="13" x="32.5" y="13.325" font-family="微软雅黑" font-weight="normal" font-style="normal" text-decoration="none" family="微软雅黑" text-anchor="middle" size="13">backprop</text></g></g><g id="ProcessOnG1159" transform="matrix(1.0,0.0,0.0,1.0,268.0,538.0)" opacity="1.0"><path id="ProcessOnPath1160" d="M0.0 0.0L67.0 0.0L67.0 28.0L0.0 28.0Z" stroke="none" stroke-width="0.0" stroke-dasharray="none" opacity="1.0" fill="none"/><g id="ProcessOnG1161" transform="matrix(1.0,0.0,0.0,1.0,0.0,5.875)"><text id="ProcessOnText1162" fill="#000000" font-size="13" x="32.5" y="13.325" font-family="微软雅黑" font-weight="normal" font-style="normal" text-decoration="none" family="微软雅黑" text-anchor="middle" size="13">forward</text></g></g><g id="ProcessOnG1163" transform="matrix(1.0,0.0,0.0,1.0,120.0,478.0)" opacity="1.0"><path id="ProcessOnPath1164" d="M0.0 4.0Q0.0 0.0 4.0 0.0L59.0 0.0Q63.0 0.0 63.0 4.0L63.0 20.0Q63.0 24.0 59.0 24.0L4.0 24.0Q0.0 24.0 0.0 20.0Z" stroke="#323232" stroke-width="2.0" stroke-dasharray="none" opacity="1.0" fill="#ffffff"/><g id="ProcessOnG1165" transform="matrix(1.0,0.0,0.0,1.0,10.0,3.875)"><text id="ProcessOnText1166" fill="#000000" font-size="13" x="20.5" y="13.325" font-family="微软雅黑" font-weight="normal" font-style="normal" text-decoration="none" family="微软雅黑" text-anchor="middle" size="13">layer</text></g></g><g id="ProcessOnG1167"><path id="ProcessOnPath1168" d="M216.0 525.0L242.5 525.0L242.5 525.0L253.7639320225002 525.0" stroke="#007fff" stroke-width="2.0" stroke-dasharray="none" fill="none" marker-end="url(#ProcessOnMarker1169)"/></g><g id="ProcessOnG1171" transform="matrix(1.0,0.0,0.0,1.0,208.0,478.0)" opacity="1.0"><path id="ProcessOnPath1172" d="M0.0 0.0L63.0 0.0L63.0 24.0L0.0 24.0Z" stroke="#323232" stroke-width="2.0" stroke-dasharray="none" opacity="1.0" fill="#ffccff"/><g id="ProcessOnG1173" transform="matrix(1.0,0.0,0.0,1.0,10.0,3.875)"><text id="ProcessOnText1174" fill="#000000" font-size="13" x="20.5" y="13.325" font-family="微软雅黑" font-weight="normal" font-style="normal" text-decoration="none" family="微软雅黑" text-anchor="middle" size="13">RPN</text></g></g><g id="ProcessOnG1175" transform="matrix(1.0,0.0,0.0,1.0,271.0,478.0)" opacity="1.0"><path id="ProcessOnPath1176" d="M0.0 0.0L63.0 0.0L63.0 24.0L0.0 24.0Z" stroke="#323232" stroke-width="2.0" stroke-dasharray="none" opacity="1.0" fill="#ccffff"/><g id="ProcessOnG1177" transform="matrix(1.0,0.0,0.0,1.0,10.0,3.875)"><text id="ProcessOnText1178" fill="#000000" font-size="13" x="20.5" y="13.325" font-family="微软雅黑" font-weight="normal" font-style="normal" text-decoration="none" family="微软雅黑" text-anchor="middle" size="13">LOSS</text></g></g></g></g></svg>