<svg xmlns="http://www.w3.org/2000/svg" xmlns:xlink="http://www.w3.org/1999/xlink" id="processonSvg1000" viewBox="220.75 77.75 655.5 387.5" width="655.5" height="387.5"><defs id="ProcessOnDefs1001"><marker id="ProcessOnMarker1049" markerUnits="userSpaceOnUse" orient="auto" markerWidth="16.23606797749979" markerHeight="10.550836550532098" viewBox="-1.0 -1.3763819204711736 16.23606797749979 10.550836550532098" refX="-1.0" refY="3.8990363547948754"><path id="ProcessOnPath1050" d="M12.0 3.8990363547948754L0.0 7.798072709589751V0.0Z" stroke="#323232" stroke-width="2.0" fill="#323232" transform="matrix(1.0,0.0,0.0,1.0,0.0,0.0)"/></marker></defs><g id="ProcessOnG1002"><path id="ProcessOnPath1003" d="M220.75 77.75H876.25V465.25H220.75V77.75Z" fill="none"/><g id="ProcessOnG1004"><g id="ProcessOnG1005" transform="matrix(1.0,0.0,0.0,1.0,258.75,97.75)" opacity="1.0"><path id="ProcessOnPath1006" d="M0.0 0.0L565.0 0.0L565.0 347.5L0.0 347.5Z" stroke="#323232" stroke-width="2.0" stroke-dasharray="none" opacity="1.0" fill="#ffffff"/></g><g id="ProcessOnG1007" transform="matrix(1.0,0.0,0.0,1.0,461.25,206.5)" opacity="1.0"><path id="ProcessOnPath1008" d="M0.0 0.0L32.0 0.0L32.0 164.0L0.0 164.0Z" stroke="#323232" stroke-width="2.0" stroke-dasharray="none" opacity="1.0" fill="#ffffff"/></g><g id="ProcessOnG1009"><path id="ProcessOnPath1010" d="M461.25 206.5L551.25 155.5" stroke="#323232" stroke-width="2.0" stroke-dasharray="none" fill="none"/></g><g id="ProcessOnG1011"><path id="ProcessOnPath1012" d="M494.25 206.5L584.25 155.5" stroke="#323232" stroke-width="2.0" stroke-dasharray="none" fill="none"/></g><g id="ProcessOnG1013"><path id="ProcessOnPath1014" d="M647.25 154.5L647.25 317.5" stroke="#323232" stroke-width="2.0" stroke-dasharray="none" fill="none"/></g><g id="ProcessOnG1015"><path id="ProcessOnPath1016" d="M555.25 370.5L647.75 318.5" stroke="#323232" stroke-width="2.0" stroke-dasharray="none" fill="none"/></g><g id="ProcessOnG1017" transform="matrix(1.0,0.0,0.0,1.0,493.25,206.5)" opacity="1.0"><path id="ProcessOnPath1018" d="M0.0 0.0L32.0 0.0L32.0 164.0L0.0 164.0Z" stroke="#323232" stroke-width="2.0" stroke-dasharray="none" opacity="1.0" fill="#ffffff"/></g><g id="ProcessOnG1019" transform="matrix(1.0,0.0,0.0,1.0,525.25,206.5)" opacity="1.0"><path id="ProcessOnPath1020" d="M0.0 0.0L32.0 0.0L32.0 164.0L0.0 164.0Z" stroke="#323232" stroke-width="2.0" stroke-dasharray="none" opacity="1.0" fill="#ffffff"/></g><g id="ProcessOnG1021"><path id="ProcessOnPath1022" d="M524.25 207.5L614.25 156.5" stroke="#323232" stroke-width="2.0" stroke-dasharray="none" fill="none"/></g><g id="ProcessOnG1023"><path id="ProcessOnPath1024" d="M557.25 207.5L647.25 156.5" stroke="#323232" stroke-width="2.0" stroke-dasharray="none" fill="none"/></g><g id="ProcessOnG1025"><path id="ProcessOnPath1026" d="M551.25 154.5L648.25 154.5" stroke="#323232" stroke-width="2.0" stroke-dasharray="none" fill="none"/></g><g id="ProcessOnG1027"><path id="ProcessOnPath1028" d="M461.25 236.5L557.25 236.5" stroke="#323232" stroke-width="2.0" stroke-dasharray="none" fill="none"/></g><g id="ProcessOnG1029"><path id="ProcessOnPath1030" d="M557.25 237.5L583.25 222.5" stroke="#323232" stroke-width="2.0" stroke-dasharray="none" fill="none"/></g><g id="ProcessOnG1031"><path id="ProcessOnPath1032" d="M583.25 222.5L583.25 192.5" stroke="#323232" stroke-width="2.0" stroke-dasharray="none" fill="none"/></g><g id="ProcessOnG1033"><path id="ProcessOnPath1034" d="M485.25 192.5L582.25 192.5" stroke="#323232" stroke-width="2.0" stroke-dasharray="none" fill="none"/></g><g id="ProcessOnG1035" transform="matrix(1.0,0.0,0.0,1.0,467.75,213.5)" opacity="1.0"><path id="ProcessOnPath1036" d="M0.0 0.0L19.0 0.0L19.0 20.0L0.0 20.0Z" stroke="none" stroke-width="0.0" stroke-dasharray="none" opacity="1.0" fill="none"/><g id="ProcessOnG1037" transform="matrix(1.0,0.0,0.0,1.0,0.0,1.875)"><text id="ProcessOnText1038" fill="#000000" font-size="13" x="8.5" y="13.325" font-family="微软雅黑" font-weight="normal" font-style="normal" text-decoration="none" family="微软雅黑" text-anchor="middle" size="13">1</text></g></g><g id="ProcessOnG1039" transform="matrix(1.0,0.0,0.0,1.0,499.75,213.5)" opacity="1.0"><path id="ProcessOnPath1040" d="M0.0 0.0L19.0 0.0L19.0 20.0L0.0 20.0Z" stroke="none" stroke-width="0.0" stroke-dasharray="none" opacity="1.0" fill="none"/><g id="ProcessOnG1041" transform="matrix(1.0,0.0,0.0,1.0,0.0,1.875)"><text id="ProcessOnText1042" fill="#000000" font-size="13" x="8.5" y="13.325" font-family="微软雅黑" font-weight="normal" font-style="normal" text-decoration="none" family="微软雅黑" text-anchor="middle" size="13">2</text></g></g><g id="ProcessOnG1043" transform="matrix(1.0,0.0,0.0,1.0,531.75,213.5)" opacity="1.0"><path id="ProcessOnPath1044" d="M0.0 0.0L19.0 0.0L19.0 20.0L0.0 20.0Z" stroke="none" stroke-width="0.0" stroke-dasharray="none" opacity="1.0" fill="none"/><g id="ProcessOnG1045" transform="matrix(1.0,0.0,0.0,1.0,0.0,1.875)"><text id="ProcessOnText1046" fill="#000000" font-size="13" x="8.5" y="13.325" font-family="微软雅黑" font-weight="normal" font-style="normal" text-decoration="none" family="微软雅黑" text-anchor="middle" size="13">3</text></g></g><g id="ProcessOnG1047"><path id="ProcessOnPath1048" d="M569.25 214.5L723.0139320225002 214.5" stroke="#323232" stroke-width="2.0" stroke-dasharray="none" fill="none" marker-end="url(#ProcessOnMarker1049)"/></g><g id="ProcessOnG1051" transform="matrix(1.0,0.0,0.0,1.0,743.25,200.5)" opacity="1.0"><path id="ProcessOnPath1052" d="M0.0 0.0L30.0 0.0L30.0 29.0L0.0 29.0Z" stroke="#323232" stroke-width="2.0" stroke-dasharray="none" opacity="1.0" fill="#ffffff"/><g id="ProcessOnG1053" transform="matrix(1.0,0.0,0.0,1.0,10.0,6.375)"><text id="ProcessOnText1054" fill="#000000" font-size="13" x="4.0" y="13.325" font-family="微软雅黑" font-weight="normal" font-style="normal" text-decoration="none" family="微软雅黑" text-anchor="middle" size="13">-</text></g></g><g id="ProcessOnG1055" transform="matrix(1.0,0.0,0.0,1.0,773.25,200.5)" opacity="1.0"><path id="ProcessOnPath1056" d="M0.0 0.0L30.0 0.0L30.0 29.0L0.0 29.0Z" stroke="#323232" stroke-width="2.0" stroke-dasharray="none" opacity="1.0" fill="#ffffff"/><g id="ProcessOnG1057" transform="matrix(1.0,0.0,0.0,1.0,10.0,6.375)"><text id="ProcessOnText1058" fill="#000000" font-size="13" x="4.0" y="13.325" font-family="微软雅黑" font-weight="normal" font-style="normal" text-decoration="none" family="微软雅黑" text-anchor="middle" size="13">+</text></g></g><g id="ProcessOnG1059" transform="matrix(1.0,0.0,0.0,1.0,696.25,160.5)" opacity="1.0"><path id="ProcessOnPath1060" d="M0.0 0.0L160.0 0.0L160.0 40.0L0.0 40.0Z" stroke="none" stroke-width="0.0" stroke-dasharray="none" opacity="1.0" fill="none"/><g id="ProcessOnG1061" transform="matrix(1.0,0.0,0.0,1.0,0.0,3.75)"><text id="ProcessOnText1062" fill="#000000" font-size="13" x="79.0" y="13.325" font-family="微软雅黑" font-weight="normal" font-style="normal" text-decoration="none" family="微软雅黑" text-anchor="middle" size="13">anchor box 3</text><text id="ProcessOnText1063" fill="#000000" font-size="13" x="79.0" y="29.575" font-family="微软雅黑" font-weight="normal" font-style="normal" text-decoration="none" family="微软雅黑" text-anchor="middle" size="13">for pixel (0, 0)</text></g></g><g id="ProcessOnG1064" transform="matrix(1.0,0.0,0.0,1.0,748.5,233.5)" opacity="1.0"><path id="ProcessOnPath1065" d="M0.0 0.0L19.5 0.0L19.5 20.0L0.0 20.0Z" stroke="none" stroke-width="0.0" stroke-dasharray="none" opacity="1.0" fill="none"/><g id="ProcessOnG1066" transform="matrix(1.0,0.0,0.0,1.0,0.0,1.875)"><text id="ProcessOnText1067" fill="#000000" font-size="13" x="8.75" y="13.325" font-family="微软雅黑" font-weight="normal" font-style="normal" text-decoration="none" family="微软雅黑" text-anchor="middle" size="13">bg</text></g></g><g id="ProcessOnG1068" transform="matrix(1.0,0.0,0.0,1.0,778.5,233.5)" opacity="1.0"><path id="ProcessOnPath1069" d="M0.0 0.0L19.5 0.0L19.5 20.0L0.0 20.0Z" stroke="none" stroke-width="0.0" stroke-dasharray="none" opacity="1.0" fill="none"/><g id="ProcessOnG1070" transform="matrix(1.0,0.0,0.0,1.0,0.0,1.875)"><text id="ProcessOnText1071" fill="#000000" font-size="13" x="8.75" y="13.325" font-family="微软雅黑" font-weight="normal" font-style="normal" text-decoration="none" family="微软雅黑" text-anchor="middle" size="13">fg</text></g></g><g id="ProcessOnG1072" transform="matrix(1.0,0.0,0.0,1.0,310.75,161.5)" opacity="1.0"><path id="ProcessOnPath1073" d="M0.0 0.0L32.0 0.0L32.0 20.0L0.0 20.0Z" stroke="none" stroke-width="0.0" stroke-dasharray="none" opacity="1.0" fill="none"/><g id="ProcessOnG1074" transform="matrix(1.0,0.0,0.0,1.0,0.0,1.875)"><text id="ProcessOnText1075" fill="#000000" font-size="13" x="15.0" y="13.325" font-family="微软雅黑" font-weight="normal" font-style="normal" text-decoration="none" family="微软雅黑" text-anchor="middle" size="13">64</text></g></g><g id="ProcessOnG1076" transform="matrix(1.0,0.0,0.0,1.0,256.75,272.5)" opacity="1.0"><path id="ProcessOnPath1077" d="M0.0 0.0L32.0 0.0L32.0 20.0L0.0 20.0Z" stroke="none" stroke-width="0.0" stroke-dasharray="none" opacity="1.0" fill="none"/><g id="ProcessOnG1078" transform="matrix(1.0,0.0,0.0,1.0,0.0,1.875)"><text id="ProcessOnText1079" fill="#000000" font-size="13" x="15.0" y="13.325" font-family="微软雅黑" font-weight="normal" font-style="normal" text-decoration="none" family="微软雅黑" text-anchor="middle" size="13">64</text></g></g><g id="ProcessOnG1080"><path id="ProcessOnPath1081" d="M289.25 208.5L289.25 371.5" stroke="#323232" stroke-width="2.0" stroke-dasharray="none" fill="none"/></g><g id="ProcessOnG1082"><path id="ProcessOnPath1083" d="M381.25 156.5L381.25 319.5" stroke="#323232" stroke-width="2.0" stroke-dasharray="none" fill="none"/></g><g id="ProcessOnG1084"><path id="ProcessOnPath1085" d="M289.25 371.5L381.75 319.5" stroke="#323232" stroke-width="2.0" stroke-dasharray="none" fill="none"/></g><g id="ProcessOnG1086"><path id="ProcessOnPath1087" d="M289.25 209.5L381.75 157.5" stroke="#323232" stroke-width="2.0" stroke-dasharray="none" fill="none"/></g><g id="ProcessOnG1088" transform="matrix(1.0,0.0,0.0,1.0,316.0,257.5)" opacity="1.0"><path id="ProcessOnPath1089" d="M0.0 0.0L29.25 0.0L29.25 20.0L0.0 20.0Z" stroke="none" stroke-width="0.0" stroke-dasharray="none" opacity="1.0" fill="none"/><g id="ProcessOnG1090" transform="matrix(1.0,0.0,0.0,1.0,0.0,1.875)"><text id="ProcessOnText1091" fill="#000000" font-size="13" x="13.625" y="13.325" font-family="微软雅黑" font-weight="normal" font-style="normal" text-decoration="none" family="微软雅黑" text-anchor="middle" size="13">p3</text></g></g><g id="ProcessOnG1092" transform="matrix(1.0,0.0,0.0,1.0,429.25,381.5)" opacity="1.0"><path id="ProcessOnPath1093" d="M0.0 0.0L160.0 0.0L160.0 40.0L0.0 40.0Z" stroke="none" stroke-width="0.0" stroke-dasharray="none" opacity="1.0" fill="none"/><g id="ProcessOnG1094" transform="matrix(1.0,0.0,0.0,1.0,0.0,11.875)"><text id="ProcessOnText1095" fill="#000000" font-size="13" x="79.0" y="13.325" font-family="微软雅黑" font-weight="normal" font-style="normal" text-decoration="none" family="微软雅黑" text-anchor="middle" size="13">RPN3's output</text></g></g><g id="ProcessOnG1096" transform="matrix(1.0,0.0,0.0,1.0,240.75,381.5)" opacity="1.0"><path id="ProcessOnPath1097" d="M0.0 0.0L160.0 0.0L160.0 40.0L0.0 40.0Z" stroke="none" stroke-width="0.0" stroke-dasharray="none" opacity="1.0" fill="none"/><g id="ProcessOnG1098" transform="matrix(1.0,0.0,0.0,1.0,0.0,11.875)"><text id="ProcessOnText1099" fill="#000000" font-size="13" x="79.0" y="13.325" font-family="微软雅黑" font-weight="normal" font-style="normal" text-decoration="none" family="微软雅黑" text-anchor="middle" size="13">feature map</text></g></g><g id="ProcessOnG1100" transform="matrix(1.0,0.0,0.0,1.0,360.25,237.5)" opacity="1.0"><path id="ProcessOnPath1101" d="M0.0 19.8L60.0 19.8L60.0 0.0L90.0 30.0L60.0 60.0L60.0 40.2L0.0 40.2L0.0 19.8Z" stroke="#323232" stroke-width="2.0" stroke-dasharray="none" opacity="1.0" fill="#ffffff"/><g id="ProcessOnG1102" transform="matrix(1.0,0.0,0.0,1.0,0.0,21.875)"><text id="ProcessOnText1103" fill="#000000" font-size="13" x="44.0" y="13.325" font-family="微软雅黑" font-weight="normal" font-style="normal" text-decoration="none" family="微软雅黑" text-anchor="middle" size="13">RPN3</text></g></g></g></g></svg>